<?xml version="1.0" encoding="utf-8"?>
<svg version="1.1" xmlns:xlink="http://www.w3.org/1999/xlink" width="6px" height="12px" xmlns="http://www.w3.org/2000/svg">
  <defs>
    <pattern id="BGPattern" patternUnits="userSpaceOnUse" alignment="0 0" imageRepeat="None" />
    <mask fill="white" id="Clip267">
      <path d="M 2.740909090909094 0.0867469879518023  L 2.290909090909085 1.8216867469879552  L 5.549999999999991 2.746987951807229  L 4.240909090909079 7.937349397590358  L 0.9818181818181725 7.0120481927710845  L 0.10909090909090288 10.467469879518069  L 3.3681818181818093 11.392771084337342  L 3.2454545454545394 11.898795180722885  L 6 1.012048192771076  L 2.740909090909094 0.0867469879518023  Z " fill-rule="evenodd" />
    </mask>
  </defs>
  <g transform="matrix(1 0 0 1 -602 -1318 )">
    <path d="M 2.740909090909094 0.0867469879518023  L 2.290909090909085 1.8216867469879552  L 5.549999999999991 2.746987951807229  L 4.240909090909079 7.937349397590358  L 0.9818181818181725 7.0120481927710845  L 0.10909090909090288 10.467469879518069  L 3.3681818181818093 11.392771084337342  L 3.2454545454545394 11.898795180722885  L 6 1.012048192771076  L 2.740909090909094 0.0867469879518023  Z " fill-rule="nonzero" fill="rgba(0, 82, 217, 1)" stroke="none" transform="matrix(1 0 0 1 602 1318 )" class="fill" />
    <path d="M 2.740909090909094 0.0867469879518023  L 2.290909090909085 1.8216867469879552  L 5.549999999999991 2.746987951807229  L 4.240909090909079 7.937349397590358  L 0.9818181818181725 7.0120481927710845  L 0.10909090909090288 10.467469879518069  L 3.3681818181818093 11.392771084337342  L 3.2454545454545394 11.898795180722885  L 6 1.012048192771076  L 2.740909090909094 0.0867469879518023  Z " stroke-width="0" stroke-dasharray="0" stroke="rgba(255, 255, 255, 0)" fill="none" transform="matrix(1 0 0 1 602 1318 )" class="stroke" mask="url(#Clip267)" />
  </g>
</svg>