<?xml version="1.0" encoding="utf-8"?>
<svg version="1.1" xmlns:xlink="http://www.w3.org/1999/xlink" width="38px" height="13px" xmlns="http://www.w3.org/2000/svg">
  <defs>
    <pattern id="BGPattern" patternUnits="userSpaceOnUse" alignment="0 0" imageRepeat="None" />
    <mask fill="white" id="Clip894">
      <path d="M 7.614074074074077 5.158064516129035  L 8.528888888888892 1.8172043010752708  L 9.373333333333337 2.040860215053765  L 8.4725925925926 5.381720430107529  L 16.88888888888889 7.618279569892474  L 17.789629629629626 4.277419354838711  L 21.99777777777777 5.395698924731184  L 21.097037037037033 8.736559139784946  L 18.00074074074074 7.911827956989247  L 21.941481481481482 8.96021505376344  L 22.842222222222215 5.619354838709678  L 23.68666666666666 5.843010752688171  L 22.785925925925923 9.183870967741933  L 22.715555555555554 9.16989247311828  L 37.09925925925926 13  L 38 9.659139784946236  L 11.048148148148147 2.488172043010754  L 10.14740740740741 5.829032258064516  L 9.302962962962967 5.6053763440860225  L 10.203703703703704 2.2645161290322586  L 2.9133333333333313 0.3215053763440856  L 3.4762962962962947 0.4752688172042999  L 2.5755555555555576 3.8161290322580643  L 1.7311111111111128 3.59247311827957  L 2.63185185185185 0.25161290322580604  L 1.7874074074074058 0.02795698924731222  L 0.8866666666666683 3.368817204301076  L 0.04222222222222382 3.1451612903225827  L 7.614074074074077 5.158064516129035  Z " fill-rule="evenodd" />
    </mask>
  </defs>
  <g transform="matrix(1 0 0 1 -568 -1288 )">
    <path d="M 7.614074074074077 5.158064516129035  L 8.528888888888892 1.8172043010752708  L 9.373333333333337 2.040860215053765  L 8.4725925925926 5.381720430107529  L 16.88888888888889 7.618279569892474  L 17.789629629629626 4.277419354838711  L 21.99777777777777 5.395698924731184  L 21.097037037037033 8.736559139784946  L 18.00074074074074 7.911827956989247  L 21.941481481481482 8.96021505376344  L 22.842222222222215 5.619354838709678  L 23.68666666666666 5.843010752688171  L 22.785925925925923 9.183870967741933  L 22.715555555555554 9.16989247311828  L 37.09925925925926 13  L 38 9.659139784946236  L 11.048148148148147 2.488172043010754  L 10.14740740740741 5.829032258064516  L 9.302962962962967 5.6053763440860225  L 10.203703703703704 2.2645161290322586  L 2.9133333333333313 0.3215053763440856  L 3.4762962962962947 0.4752688172042999  L 2.5755555555555576 3.8161290322580643  L 1.7311111111111128 3.59247311827957  L 2.63185185185185 0.25161290322580604  L 1.7874074074074058 0.02795698924731222  L 0.8866666666666683 3.368817204301076  L 0.04222222222222382 3.1451612903225827  L 7.614074074074077 5.158064516129035  Z " fill-rule="nonzero" fill="rgba(0, 82, 217, 1)" stroke="none" transform="matrix(1 0 0 1 568 1288 )" class="fill" />
    <path d="M 7.614074074074077 5.158064516129035  L 8.528888888888892 1.8172043010752708  L 9.373333333333337 2.040860215053765  L 8.4725925925926 5.381720430107529  L 16.88888888888889 7.618279569892474  L 17.789629629629626 4.277419354838711  L 21.99777777777777 5.395698924731184  L 21.097037037037033 8.736559139784946  L 18.00074074074074 7.911827956989247  L 21.941481481481482 8.96021505376344  L 22.842222222222215 5.619354838709678  L 23.68666666666666 5.843010752688171  L 22.785925925925923 9.183870967741933  L 22.715555555555554 9.16989247311828  L 37.09925925925926 13  L 38 9.659139784946236  L 11.048148148148147 2.488172043010754  L 10.14740740740741 5.829032258064516  L 9.302962962962967 5.6053763440860225  L 10.203703703703704 2.2645161290322586  L 2.9133333333333313 0.3215053763440856  L 3.4762962962962947 0.4752688172042999  L 2.5755555555555576 3.8161290322580643  L 1.7311111111111128 3.59247311827957  L 2.63185185185185 0.25161290322580604  L 1.7874074074074058 0.02795698924731222  L 0.8866666666666683 3.368817204301076  L 0.04222222222222382 3.1451612903225827  L 7.614074074074077 5.158064516129035  Z " stroke-width="0" stroke-dasharray="0" stroke="rgba(255, 255, 255, 0)" fill="none" transform="matrix(1 0 0 1 568 1288 )" class="stroke" mask="url(#Clip894)" />
  </g>
</svg>