<?xml version="1.0" encoding="utf-8"?>
<svg version="1.1" xmlns:xlink="http://www.w3.org/1999/xlink" width="48px" height="19px" xmlns="http://www.w3.org/2000/svg">
  <defs>
    <pattern id="BGPattern" patternUnits="userSpaceOnUse" alignment="0 0" imageRepeat="None" />
    <mask fill="white" id="Clip279">
      <path d="M 47.98608695652174 15.57720588235295  L 42.1704347826087 14.012500000000001  L 41.28 17.35147058823529  L 37.954782608695666 16.45735294117647  L 38.84521739130435 13.11838235294118  L 30.525217391304352 10.883088235294123  L 29.63478260869566 14.222058823529414  L 28.800000000000004 13.998529411764705  L 29.690434782608698 10.659558823529414  L 30.19130434782609 10.799264705882354  L 4.730434782608696 3.9397058823529476  C 3.812173913043478 3.6882352941176517  3.269565217391304 2.7382352941176498  3.506086956521739 1.8161764705882433  L 3.728695652173913 0.9779411764705962  L 0.4034782608695655 0.08382352941177583  L 0.1808695652173916 0.9220588235294228  C -0.5565217391304348 3.6882352941176517  1.0713043478260869 6.53823529411765  3.826086956521739 7.278676470588239  L 45.16173913043479 18.39926470588236  L 42.100869565217394 17.57500000000001  L 42.99130434782609 14.236029411764719  L 46.31652173913043 15.130147058823539  L 45.42608695652174 18.46911764705883  L 47.09565217391304 18.91617647058824  L 47.98608695652174 15.57720588235295  Z " fill-rule="evenodd" />
    </mask>
  </defs>
  <g transform="matrix(1 0 0 1 -512 -1320 )">
    <path d="M 47.98608695652174 15.57720588235295  L 42.1704347826087 14.012500000000001  L 41.28 17.35147058823529  L 37.954782608695666 16.45735294117647  L 38.84521739130435 13.11838235294118  L 30.525217391304352 10.883088235294123  L 29.63478260869566 14.222058823529414  L 28.800000000000004 13.998529411764705  L 29.690434782608698 10.659558823529414  L 30.19130434782609 10.799264705882354  L 4.730434782608696 3.9397058823529476  C 3.812173913043478 3.6882352941176517  3.269565217391304 2.7382352941176498  3.506086956521739 1.8161764705882433  L 3.728695652173913 0.9779411764705962  L 0.4034782608695655 0.08382352941177583  L 0.1808695652173916 0.9220588235294228  C -0.5565217391304348 3.6882352941176517  1.0713043478260869 6.53823529411765  3.826086956521739 7.278676470588239  L 45.16173913043479 18.39926470588236  L 42.100869565217394 17.57500000000001  L 42.99130434782609 14.236029411764719  L 46.31652173913043 15.130147058823539  L 45.42608695652174 18.46911764705883  L 47.09565217391304 18.91617647058824  L 47.98608695652174 15.57720588235295  Z " fill-rule="nonzero" fill="rgba(0, 82, 217, 1)" stroke="none" transform="matrix(1 0 0 1 512 1320 )" class="fill" />
    <path d="M 47.98608695652174 15.57720588235295  L 42.1704347826087 14.012500000000001  L 41.28 17.35147058823529  L 37.954782608695666 16.45735294117647  L 38.84521739130435 13.11838235294118  L 30.525217391304352 10.883088235294123  L 29.63478260869566 14.222058823529414  L 28.800000000000004 13.998529411764705  L 29.690434782608698 10.659558823529414  L 30.19130434782609 10.799264705882354  L 4.730434782608696 3.9397058823529476  C 3.812173913043478 3.6882352941176517  3.269565217391304 2.7382352941176498  3.506086956521739 1.8161764705882433  L 3.728695652173913 0.9779411764705962  L 0.4034782608695655 0.08382352941177583  L 0.1808695652173916 0.9220588235294228  C -0.5565217391304348 3.6882352941176517  1.0713043478260869 6.53823529411765  3.826086956521739 7.278676470588239  L 45.16173913043479 18.39926470588236  L 42.100869565217394 17.57500000000001  L 42.99130434782609 14.236029411764719  L 46.31652173913043 15.130147058823539  L 45.42608695652174 18.46911764705883  L 47.09565217391304 18.91617647058824  L 47.98608695652174 15.57720588235295  Z " stroke-width="0" stroke-dasharray="0" stroke="rgba(255, 255, 255, 0)" fill="none" transform="matrix(1 0 0 1 512 1320 )" class="stroke" mask="url(#Clip279)" />
  </g>
</svg>