<?xml version="1.0" encoding="utf-8"?>
<svg version="1.1" xmlns:xlink="http://www.w3.org/1999/xlink" width="22px" height="9px" xmlns="http://www.w3.org/2000/svg">
  <defs>
    <pattern id="BGPattern" patternUnits="userSpaceOnUse" alignment="0 0" imageRepeat="None" />
    <mask fill="white" id="Clip278">
      <path d="M 21.95875 6.067741935483897  L 18.108749999999997 4.993548387096779  L 18.76875 5.182258064516136  L 17.88875 8.651612903225809  L 17.063750000000002 8.419354838709676  L 17.94375 4.950000000000004  L 4.936249999999997 1.2629032258064583  L 6.434999999999993 1.6838709677419388  L 5.554999999999996 5.153225806451613  L 3.9049999999999967 4.688709677419356  L 4.784999999999994 1.2193548387096822  L 0.8112499999999969 0.10161290322581305  L 1.4987499999999967 0.2903225806451695  L 0.61875 3.7596774193548437  L 0 3.5854838709677486  L 8.360000000000001 5.951612903225815  L 8.016250000000001 5.85000000000001  L 8.896249999999998 2.3806451612903357  L 9.721249999999998 2.6129032258064684  L 8.841250000000002 6.082258064516142  L 9.666250000000002 6.314516129032274  L 10.546249999999999 2.8451612903226002  L 11.37125 3.077419354838733  L 10.49125 6.546774193548407  L 10.188750000000002 6.459677419354855  L 18.713750000000005 8.869354838709697  L 19.59375 5.400000000000023  L 21.95875 6.067741935483897  Z " fill-rule="evenodd" />
    </mask>
  </defs>
  <g transform="matrix(1 0 0 1 -560 -1336 )">
    <path d="M 21.95875 6.067741935483897  L 18.108749999999997 4.993548387096779  L 18.76875 5.182258064516136  L 17.88875 8.651612903225809  L 17.063750000000002 8.419354838709676  L 17.94375 4.950000000000004  L 4.936249999999997 1.2629032258064583  L 6.434999999999993 1.6838709677419388  L 5.554999999999996 5.153225806451613  L 3.9049999999999967 4.688709677419356  L 4.784999999999994 1.2193548387096822  L 0.8112499999999969 0.10161290322581305  L 1.4987499999999967 0.2903225806451695  L 0.61875 3.7596774193548437  L 0 3.5854838709677486  L 8.360000000000001 5.951612903225815  L 8.016250000000001 5.85000000000001  L 8.896249999999998 2.3806451612903357  L 9.721249999999998 2.6129032258064684  L 8.841250000000002 6.082258064516142  L 9.666250000000002 6.314516129032274  L 10.546249999999999 2.8451612903226002  L 11.37125 3.077419354838733  L 10.49125 6.546774193548407  L 10.188750000000002 6.459677419354855  L 18.713750000000005 8.869354838709697  L 19.59375 5.400000000000023  L 21.95875 6.067741935483897  Z " fill-rule="nonzero" fill="rgba(0, 82, 217, 1)" stroke="none" transform="matrix(1 0 0 1 560 1336 )" class="fill" />
    <path d="M 21.95875 6.067741935483897  L 18.108749999999997 4.993548387096779  L 18.76875 5.182258064516136  L 17.88875 8.651612903225809  L 17.063750000000002 8.419354838709676  L 17.94375 4.950000000000004  L 4.936249999999997 1.2629032258064583  L 6.434999999999993 1.6838709677419388  L 5.554999999999996 5.153225806451613  L 3.9049999999999967 4.688709677419356  L 4.784999999999994 1.2193548387096822  L 0.8112499999999969 0.10161290322581305  L 1.4987499999999967 0.2903225806451695  L 0.61875 3.7596774193548437  L 0 3.5854838709677486  L 8.360000000000001 5.951612903225815  L 8.016250000000001 5.85000000000001  L 8.896249999999998 2.3806451612903357  L 9.721249999999998 2.6129032258064684  L 8.841250000000002 6.082258064516142  L 9.666250000000002 6.314516129032274  L 10.546249999999999 2.8451612903226002  L 11.37125 3.077419354838733  L 10.49125 6.546774193548407  L 10.188750000000002 6.459677419354855  L 18.713750000000005 8.869354838709697  L 19.59375 5.400000000000023  L 21.95875 6.067741935483897  Z " stroke-width="0" stroke-dasharray="0" stroke="rgba(255, 255, 255, 0)" fill="none" transform="matrix(1 0 0 1 560 1336 )" class="stroke" mask="url(#Clip278)" />
  </g>
</svg>