<?xml version="1.0" encoding="utf-8"?>
<svg version="1.1" xmlns:xlink="http://www.w3.org/1999/xlink" width="5px" height="7px" xmlns="http://www.w3.org/2000/svg">
  <defs>
    <pattern id="BGPattern" patternUnits="userSpaceOnUse" alignment="0 0" imageRepeat="None" />
    <mask fill="white" id="Clip2028">
      <path d="M 0.22222222222222143 5.4212765957446845  L 3.541666666666667 6.374468085106384  L 3.4027777777777777 6.955319148936173  L 4.888888888888889 1.027659574468088  L 4.666666666666668 1.9212765957446836  L 1.3472222222222245 0.9680851063829818  L 1.569444444444446 0.07446808510638563  L 0.08333333333333255 5.957446808510641  L 0.22222222222222143 5.4212765957446845  Z " fill-rule="evenodd" />
    </mask>
  </defs>
  <g transform="matrix(1 0 0 1 -558 -826 )">
    <path d="M 0.22222222222222143 5.4212765957446845  L 3.541666666666667 6.374468085106384  L 3.4027777777777777 6.955319148936173  L 4.888888888888889 1.027659574468088  L 4.666666666666668 1.9212765957446836  L 1.3472222222222245 0.9680851063829818  L 1.569444444444446 0.07446808510638563  L 0.08333333333333255 5.957446808510641  L 0.22222222222222143 5.4212765957446845  Z " fill-rule="nonzero" fill="rgba(0, 82, 217, 1)" stroke="none" transform="matrix(1 0 0 1 558 826 )" class="fill" />
    <path d="M 0.22222222222222143 5.4212765957446845  L 3.541666666666667 6.374468085106384  L 3.4027777777777777 6.955319148936173  L 4.888888888888889 1.027659574468088  L 4.666666666666668 1.9212765957446836  L 1.3472222222222245 0.9680851063829818  L 1.569444444444446 0.07446808510638563  L 0.08333333333333255 5.957446808510641  L 0.22222222222222143 5.4212765957446845  Z " stroke-width="0" stroke-dasharray="0" stroke="rgba(255, 255, 255, 0)" fill="none" transform="matrix(1 0 0 1 558 826 )" class="stroke" mask="url(#Clip2028)" />
  </g>
</svg>