<?xml version="1.0" encoding="utf-8"?>
<svg version="1.1" xmlns:xlink="http://www.w3.org/1999/xlink" width="7px" height="4px" xmlns="http://www.w3.org/2000/svg">
  <defs>
    <pattern id="BGPattern" patternUnits="userSpaceOnUse" alignment="0 0" imageRepeat="None" />
    <mask fill="white" id="Clip2030">
      <path d="M 0.08936170212766295 2.711111111111115  L 4.542553191489362 3.896296296296298  L 5.49574468085106 0.3555555555555585  L 6.98510638297872 0.755555555555559  L 4.617021276595745 0.11851851851852231  L 3.663829787234046 3.659259259259264  L 0.08936170212766295 2.711111111111115  Z " fill-rule="evenodd" />
    </mask>
  </defs>
  <g transform="matrix(1 0 0 1 -595 -831 )">
    <path d="M 0.08936170212766295 2.711111111111115  L 4.542553191489362 3.896296296296298  L 5.49574468085106 0.3555555555555585  L 6.98510638297872 0.755555555555559  L 4.617021276595745 0.11851851851852231  L 3.663829787234046 3.659259259259264  L 0.08936170212766295 2.711111111111115  Z " fill-rule="nonzero" fill="rgba(0, 82, 217, 1)" stroke="none" transform="matrix(1 0 0 1 595 831 )" class="fill" />
    <path d="M 0.08936170212766295 2.711111111111115  L 4.542553191489362 3.896296296296298  L 5.49574468085106 0.3555555555555585  L 6.98510638297872 0.755555555555559  L 4.617021276595745 0.11851851851852231  L 3.663829787234046 3.659259259259264  L 0.08936170212766295 2.711111111111115  Z " stroke-width="0" stroke-dasharray="0" stroke="rgba(255, 255, 255, 0)" fill="none" transform="matrix(1 0 0 1 595 831 )" class="stroke" mask="url(#Clip2030)" />
  </g>
</svg>