<?xml version="1.0" encoding="utf-8"?>
<svg version="1.1" xmlns:xlink="http://www.w3.org/1999/xlink" width="7px" height="5px" xmlns="http://www.w3.org/2000/svg">
  <defs>
    <pattern id="BGPattern" patternUnits="userSpaceOnUse" alignment="0 0" imageRepeat="None" />
    <mask fill="white" id="Clip261">
      <path d="M 5.290384615384616 3.705882352941176  L 6.098076923076922 3.9411764705882346  L 6.959615384615383 0.4264705882352954  L 6.151923076923075 0.1911764705882366  C 3.4865384615384603 -0.5882352941176454  0.7403846153846134 1.1470588235294126  0.02692307692307539 4.0588235294117645  L 3.244230769230769 5  C 3.4865384615384625 4.01470588235294  4.401923076923078 3.4411764705882346  5.290384615384616 3.705882352941176  Z " fill-rule="evenodd" />
    </mask>
  </defs>
  <g transform="matrix(1 0 0 1 -1738 -472 )">
    <path d="M 5.290384615384616 3.705882352941176  L 6.098076923076922 3.9411764705882346  L 6.959615384615383 0.4264705882352954  L 6.151923076923075 0.1911764705882366  C 3.4865384615384603 -0.5882352941176454  0.7403846153846134 1.1470588235294126  0.02692307692307539 4.0588235294117645  L 3.244230769230769 5  C 3.4865384615384625 4.01470588235294  4.401923076923078 3.4411764705882346  5.290384615384616 3.705882352941176  Z " fill-rule="nonzero" fill="rgba(0, 82, 217, 1)" stroke="none" transform="matrix(1 0 0 1 1738 472 )" class="fill" />
    <path d="M 5.290384615384616 3.705882352941176  L 6.098076923076922 3.9411764705882346  L 6.959615384615383 0.4264705882352954  L 6.151923076923075 0.1911764705882366  C 3.4865384615384603 -0.5882352941176454  0.7403846153846134 1.1470588235294126  0.02692307692307539 4.0588235294117645  L 3.244230769230769 5  C 3.4865384615384625 4.01470588235294  4.401923076923078 3.4411764705882346  5.290384615384616 3.705882352941176  Z " stroke-width="0" stroke-dasharray="0" stroke="rgba(255, 255, 255, 0)" fill="none" transform="matrix(1 0 0 1 1738 472 )" class="stroke" mask="url(#Clip261)" />
  </g>
</svg>