<?xml version="1.0" encoding="utf-8"?>
<svg version="1.1" xmlns:xlink="http://www.w3.org/1999/xlink" width="6px" height="13px" xmlns="http://www.w3.org/2000/svg">
  <defs>
    <pattern id="BGPattern" patternUnits="userSpaceOnUse" alignment="0 0" imageRepeat="None" />
    <mask fill="white" id="Clip271">
      <path d="M 1.7849999999999966 0.12315789473684288  L 0.8250000000000001 3.393684210526317  C 1.8150000000000033 3.6400000000000032  2.4000000000000004 4.570526315789475  2.1449999999999934 5.473684210526315  L 0.11999999999999317 12.329473684210527  L 0.2099999999999966 12.014736842105261  L 3.794999999999993 12.890526315789472  L 5.714999999999986 6.349473684210527  C 6.509999999999997 3.639999999999999  4.755000000000006 0.8484210526315773  1.7849999999999966 0.12315789473684288  Z " fill-rule="evenodd" />
    </mask>
  </defs>
  <g transform="matrix(1 0 0 1 -1821 -493 )">
    <path d="M 1.7849999999999966 0.12315789473684288  L 0.8250000000000001 3.393684210526317  C 1.8150000000000033 3.6400000000000032  2.4000000000000004 4.570526315789475  2.1449999999999934 5.473684210526315  L 0.11999999999999317 12.329473684210527  L 0.2099999999999966 12.014736842105261  L 3.794999999999993 12.890526315789472  L 5.714999999999986 6.349473684210527  C 6.509999999999997 3.639999999999999  4.755000000000006 0.8484210526315773  1.7849999999999966 0.12315789473684288  Z " fill-rule="nonzero" fill="rgba(0, 82, 217, 1)" stroke="none" transform="matrix(1 0 0 1 1821 493 )" class="fill" />
    <path d="M 1.7849999999999966 0.12315789473684288  L 0.8250000000000001 3.393684210526317  C 1.8150000000000033 3.6400000000000032  2.4000000000000004 4.570526315789475  2.1449999999999934 5.473684210526315  L 0.11999999999999317 12.329473684210527  L 0.2099999999999966 12.014736842105261  L 3.794999999999993 12.890526315789472  L 5.714999999999986 6.349473684210527  C 6.509999999999997 3.639999999999999  4.755000000000006 0.8484210526315773  1.7849999999999966 0.12315789473684288  Z " stroke-width="0" stroke-dasharray="0" stroke="rgba(255, 255, 255, 0)" fill="none" transform="matrix(1 0 0 1 1821 493 )" class="stroke" mask="url(#Clip271)" />
  </g>
</svg>