<?xml version="1.0" encoding="utf-8"?>
<svg version="1.1" xmlns:xlink="http://www.w3.org/1999/xlink" width="20px" height="7px" xmlns="http://www.w3.org/2000/svg">
  <defs>
    <pattern id="BGPattern" patternUnits="userSpaceOnUse" alignment="0 0" imageRepeat="None" />
    <mask fill="white" id="Clip276">
      <path d="M 16.62937062937064 1.5098039215686354  L 16.4055944055944 2.333333333333333  C 16.153846153846153 3.239215686274513  15.202797202797193 3.7745098039215685  14.279720279720268 3.541176470588237  L 0.8951048951048919 0.013725490196081552  L 0 3.307843137254905  L 1.216783216783215 3.6235294117647108  L 0.8391608391608392 3.527450980392163  L 1.734265734265731 0.24705882352942113  L 2.5734265734265707 0.4666666666666792  L 1.6783216783216783 3.747058823529421  L 13.38461538461539 6.821568627450986  C 16.153846153846153 7.549019607843137  19.00699300699302 5.929411764705889  19.748251748251754 3.2117647058823575  L 19.97202797202798 2.388235294117652  L 16.62937062937064 1.5098039215686354  Z " fill-rule="evenodd" />
    </mask>
  </defs>
  <g transform="matrix(1 0 0 1 -1796 -537 )">
    <path d="M 16.62937062937064 1.5098039215686354  L 16.4055944055944 2.333333333333333  C 16.153846153846153 3.239215686274513  15.202797202797193 3.7745098039215685  14.279720279720268 3.541176470588237  L 0.8951048951048919 0.013725490196081552  L 0 3.307843137254905  L 1.216783216783215 3.6235294117647108  L 0.8391608391608392 3.527450980392163  L 1.734265734265731 0.24705882352942113  L 2.5734265734265707 0.4666666666666792  L 1.6783216783216783 3.747058823529421  L 13.38461538461539 6.821568627450986  C 16.153846153846153 7.549019607843137  19.00699300699302 5.929411764705889  19.748251748251754 3.2117647058823575  L 19.97202797202798 2.388235294117652  L 16.62937062937064 1.5098039215686354  Z " fill-rule="nonzero" fill="rgba(0, 82, 217, 1)" stroke="none" transform="matrix(1 0 0 1 1796 537 )" class="fill" />
    <path d="M 16.62937062937064 1.5098039215686354  L 16.4055944055944 2.333333333333333  C 16.153846153846153 3.239215686274513  15.202797202797193 3.7745098039215685  14.279720279720268 3.541176470588237  L 0.8951048951048919 0.013725490196081552  L 0 3.307843137254905  L 1.216783216783215 3.6235294117647108  L 0.8391608391608392 3.527450980392163  L 1.734265734265731 0.24705882352942113  L 2.5734265734265707 0.4666666666666792  L 1.6783216783216783 3.747058823529421  L 13.38461538461539 6.821568627450986  C 16.153846153846153 7.549019607843137  19.00699300699302 5.929411764705889  19.748251748251754 3.2117647058823575  L 19.97202797202798 2.388235294117652  L 16.62937062937064 1.5098039215686354  Z " stroke-width="0" stroke-dasharray="0" stroke="rgba(255, 255, 255, 0)" fill="none" transform="matrix(1 0 0 1 1796 537 )" class="stroke" mask="url(#Clip276)" />
  </g>
</svg>